<?xml version="1.0" encoding="UTF-8"?>
<svg id="Layer_2" data-name="Layer 2" xmlns="http://www.w3.org/2000/svg" viewBox="0 0 1800 2137.49">
  <defs>
    <style>
      .cls-1 {
        fill-rule: evenodd;
      }
    </style>
  </defs>
  <g id="Page_1" data-name="Page 1">
    <g id="Page_1-2" data-name="Page 1">
      <path class="cls-1" d="m1334.81,1365.19l-68.07-20.25c50.08-66.95,83.25-156.93,83.25-276.18l.02-142.34c239.6-34.3,450-101.78,450-223.29,0-128.8-234.02-192.36-450.01-223.32l.02-29.8c0-120.39-46.7-233.43-131.62-318.39C1133.42,46.69,1020.37,0,899.99,0c-248.07-.02-450,201.93-450,450v29.8C234.01,510.75,0,574.32,0,703.12c0,121.5,210.37,188.99,449.99,223.29v142.32c0,110.26,28.13,202.52,83.25,275.62l-68.07,20.82c-103.48,31.49-197.99,88.3-273.93,163.7-59.63,60.16-108.57,133.29-141.18,212.05C16.87,1820.81,0,1904.61,0,1991.24v90c0,30.93,25.32,56.25,56.25,56.25h1687.49c30.93,0,56.25-25.32,56.25-56.24v-90.01c0-174.39-68.07-338.62-191.24-462.35-75.95-75.42-170.47-132.2-273.95-163.7M562.5,450c0-186.19,151.3-337.51,337.49-337.51,90.01,0,174.93,34.89,238.52,99,64.1,63.56,98.98,148.5,98.98,238.51v141.75c-100.69,17.43-215.99,26.99-337.5,26.99s-236.81-9.55-337.49-26.99v-141.75Zm-450.55,255.37c8.98-22.5,103.5-76.49,338.05-112.49v44.98c0,26.45,18.57,49.49,44.44,55.12,117.56,24.76,258.18,38.27,405.56,38.27s288.01-13.51,405.56-38.27c25.88-5.63,44.44-28.67,44.44-55.12l.02-45c234.55,36.02,329.05,90.03,338.05,108.01-19.66,49.49-307.69,142.88-788.06,142.88-480.37-.02-768.38-93.39-788.04-138.38Zm788.04,700.87c-1.71,0-147.92-1.12-247.5-95.64-59.62-57.39-89.99-138.37-89.99-241.85v-128.82c118.68,11.8,238.51,16.31,337.49,16.31s218.83-4.51,337.5-16.31v128.8c0,325.71-303.19,337.5-337.5,337.5Zm309.38,39.38v298.12h-618.74v-298.7l36.55-11.24c123.76,83.8,266.07,84.94,272.82,84.94,74.83-.02,181.12-21.94,272.24-84.38l37.14,11.26ZM112.49,2024.98v-33.74c0-71.45,14.06-141.18,41.07-207.55,18.56-43.88,42.75-84.94,71.44-122.65v363.94h-112.51Zm1350,0H337.5v-472.49c42.73-30.95,90.55-55.68,140.62-72.55v320.05c0,30.93,25.32,56.27,56.25,56.27h731.25c30.92-.01,56.25-25.34,56.25-56.25v-320.08c50.07,16.87,97.89,41.63,140.62,72.58v472.48Zm225,0h-112.49v-363.94c73.11,93.95,112.49,209.28,112.49,330.2v33.74Z"/>
    </g>
  </g>
</svg>