<?xml version="1.0" encoding="UTF-8"?>
<svg id="Layer_2" data-name="Layer 2" xmlns="http://www.w3.org/2000/svg" viewBox="0 0 49.09 52.91">
  <defs>
    <style>
      .cls-1 {
        fill: #fff;
      }
    </style>
  </defs>
  <g id="Layer_1-2" data-name="Layer 1">
    <g>
      <path class="cls-1" d="m27.66,6.08c-1.22,2.17-2.62,3.88-3.16,5.82-.93,3.35-1.63,6.84-1.86,10.3-.44,6.58-.51,13.19-.66,19.79-.03,1.24-.46,1.82-1.56,2.34-1.24.59-2.47,1.39-3.41,2.37-.78.82-1.44.98-2.46.74-2.38-.55-4.74-.38-6.86.85-1.63.95-3.17,1.3-5.07.94-.73-.14-2.04.64-2.44,1.36-.65,1.16.63,1.67,1.47,2.14.34.19.82.15,1.23.15,1.68.02,3.35.01,5.03.01,12.73,0,25.47,0,38.2,0,1.1,0,2.2-.05,2.63-1.23.18-.51.08-1.28-.2-1.75-.62-1.04-1.63-.71-2.66-.64-1.14.07-2.45-.06-3.43-.58-2.63-1.4-5.31-1.81-8.2-1.24-.42.08-1.01.13-1.31-.09-1.81-1.34-3.57-2.76-5.57-4.33.58-2.27,1.9-4.44,4.37-5.88.41.32.78.61,1.16.88,3.02,2.12,7.7,1.97,10.16-.63,2.13-2.25,3.93-4.8,6.03-7.41-2.73-1.79-5.02-3.55-7.54-4.88-3.98-2.11-9.13-.52-10.88,3.16-.24.51-.18,1.16-.26,1.75.59.02,1.18.12,1.76.06,2.24-.22,4.47-.49,6.71-.74.04.2.08.41.12.61-4.63.64-8.69,2.44-12.19,5.76-.22-4.51-.24-8.94-.19-13.37,0-.28.44-.74.74-.8,3.22-.64,5.47-2.5,7.42-5.11,3.9-5.23,2.95-10.86,2.13-16.45-2.02.29-3.76.6-5.52.79-3.91.42-7.8.77-11.31,2.89-4.79,2.9-5.6,9.43-2.42,13.76.26.36,1.05.61,1.49.5.44-.11.86-.69,1.1-1.16.2-.39.1-.93.17-1.39.65-4.29,2.81-7.42,7.24-9.3Z"/>
      <path class="cls-1" d="m9.14,29.73c.28-.06.51-.17.73-.15,2.53.3,5.06.63,7.59.92.48.05,1.16.11,1.41-.15.25-.27.26-1.03.06-1.41-.5-.96-1.06-1.96-1.82-2.7-2.33-2.28-6.74-2.64-9.98-.76-2.34,1.35-4.53,2.94-6.73,4.39,1.2,1.83,2.22,3.66,3.51,5.27,3.14,3.92,6.48,5.6,11.51,3.43,1.62-.7,2.9-1.84,2.92-3.73.02-1.93-1.57-2.6-3.05-3.14-1.99-.72-4.03-1.3-6.15-1.97Z"/>
      <path d="m27.66,6.08c-4.42,1.88-6.59,5.01-7.24,9.3-.07.47.03,1-.17,1.39-.24.47-.65,1.04-1.1,1.16-.44.11-1.23-.14-1.49-.5-3.18-4.33-2.37-10.86,2.42-13.76,3.5-2.12,7.4-2.47,11.31-2.89,1.76-.19,3.5-.5,5.52-.79.82,5.58,1.77,11.22-2.13,16.45-1.95,2.61-4.2,4.46-7.42,5.11-.3.06-.73.52-.74.8-.05,4.43-.03,8.86.19,13.37,3.5-3.32,7.56-5.12,12.19-5.76-.04-.2-.08-.41-.12-.61-2.23.25-4.47.52-6.71.74-.58.06-1.18-.04-1.76-.06.08-.59.02-1.24.26-1.75,1.74-3.68,6.9-5.28,10.88-3.16,2.52,1.34,4.81,3.09,7.54,4.88-2.1,2.61-3.9,5.16-6.03,7.41-2.46,2.6-7.14,2.75-10.16.63-.38-.27-.74-.56-1.16-.88-2.47,1.44-3.79,3.61-4.37,5.88,2,1.57,3.76,2.99,5.57,4.33.3.22.89.17,1.31.09,2.89-.57,5.57-.16,8.2,1.24.98.52,2.3.66,3.43.58,1.03-.07,2.04-.39,2.66.64.28.47.38,1.25.2,1.75-.43,1.18-1.53,1.23-2.63,1.23-12.73-.01-25.47,0-38.2,0-1.68,0-3.35,0-5.03-.01-.41,0-.89.03-1.23-.15-.84-.47-2.12-.98-1.47-2.14.4-.72,1.71-1.5,2.44-1.36,1.9.37,3.44.01,5.07-.94,2.12-1.23,4.48-1.4,6.86-.85,1.02.23,1.67.08,2.46-.74.94-.98,2.17-1.78,3.41-2.37,1.1-.52,1.53-1.11,1.56-2.34.14-6.6.22-13.21.66-19.79.23-3.47.94-6.95,1.86-10.3.54-1.94,1.94-3.65,3.16-5.82Z"/>
      <path d="m9.14,29.73c2.12.67,4.16,1.24,6.15,1.97,1.48.54,3.08,1.2,3.05,3.14-.02,1.89-1.3,3.03-2.92,3.73-5.03,2.17-8.38.49-11.51-3.43-1.29-1.61-2.31-3.44-3.51-5.27,2.2-1.44,4.4-3.04,6.73-4.39,3.25-1.88,7.66-1.52,9.98.76.76.75,1.32,1.74,1.82,2.7.2.38.19,1.14-.06,1.41-.24.26-.93.2-1.41.15-2.53-.28-5.06-.62-7.59-.92-.22-.03-.45.09-.73.15Z"/>
    </g>
  </g>
</svg>