<?xml version="1.0" encoding="UTF-8"?>
<svg id="Layer_2" data-name="Layer 2" xmlns="http://www.w3.org/2000/svg" viewBox="0 0 275.13 274.97">
  <g id="Layer_1-2" data-name="Layer 1">
    <g>
      <path d="m87.52,160.07c1.76,7.38,3.33,13.98,5.01,21.03-4.56,0-8.87,0-13.18,0-17.5,0-35,0-52.49,0-2.57,0-5.68,0-5.24,3.47.16,1.24,3.33,2.98,5.13,3,21.66.21,43.33.21,64.99.06,3.39-.02,5.22,1.15,7.23,3.86,4.42,5.94,9.48,11.41,14.61,17.46-1.71,0-3.44,0-5.18,0-26.5,0-52.99,0-79.49,0-1.33,0-2.86-.39-3.95.12-1.39.66-2.42,2.06-3.61,3.13,1.1,1.01,2.04,2.41,3.34,2.92,1.3.52,2.96.18,4.45.18,30.83,0,61.66-.03,92.49.07,2.57,0,5.27.61,7.69,1.53,16.57,6.27,33.12,6.58,49.75.34,1.53-.57,3.07-1.09,6.14-2.17-1.15,6.45-1.15,12.32-3.34,17.21-3.03,6.77-9.43,9.2-16.95,9.17-40.83-.12-81.66-.05-122.49-.05-8,0-16,.07-24-.02C7.15,241.23.03,234.13.02,222.91,0,154.75,0,86.59.03,18.43.03,7.75,7.23.09,17.58.06,57.4-.04,97.23.02,137.06.03c.66,0,1.31.14,2.7.29,0,5.92,0,11.87,0,17.81,0,3.33-.02,6.67,0,10,.1,10.83,5.82,16.51,16.79,16.57,8.98.05,17.96.01,27.31.01v47.99c-9.73-1.59-19.44-3.93-29.26-4.57-11.3-.74-22,2.66-32.11,7.87-2.38,1.23-5.3,2-7.97,2.02-28.66.14-57.33.09-85.99.1-1.5,0-3.16-.29-4.44.27-1.14.51-2.54,1.99-2.56,3.06-.02,1,1.44,2.47,2.57,2.95,1.29.55,2.94.29,4.44.29,24.83.01,49.66,0,74.49,0,1.82,0,3.64,0,6.07,0-4.1,5.43-8.51,10.01-11.37,15.41-2.61,4.94-5.78,6.05-10.96,5.97-19.49-.3-38.99-.12-58.49-.11-1.5,0-3.18-.3-4.43.28-1.09.51-2.2,2.02-2.33,3.19-.09.8,1.33,2.21,2.36,2.59,1.34.49,2.95.29,4.45.3,19,.01,38,0,56.99,0,1.81,0,3.62,0,5.79,0-1.28,7.08-2.48,13.69-3.77,20.82-1.57.08-3.34.24-5.12.24-17.66.02-35.33.01-52.99.01-1.33,0-2.89-.41-3.95.14-1.51.78-2.65,2.27-3.95,3.45,1.27,1.02,2.41,2.29,3.84,2.99.95.46,2.29.1,3.46.1,17.83,0,35.66,0,53.49,0h5.38ZM68.93,17.67c-13.99,0-27.97.08-41.96-.05-3.87-.04-5.94.97-5.75,5.33.25,5.65.15,11.32.02,16.98-.08,3.48,1.6,4.78,4.85,4.78,28.47-.02,56.95-.03,85.42.02,3.67,0,5.07-1.65,5.01-5.17-.1-5.49-.16-10.99.02-16.48.14-4.13-1.59-5.52-5.65-5.47-13.98.17-27.97.06-41.96.06Zm23.22,59.39c21.15,0,42.29,0,63.44,0,1.33,0,2.83.33,3.95-.17,1.13-.51,2.71-1.96,2.6-2.81-.16-1.25-1.43-2.69-2.62-3.36-1.03-.58-2.6-.23-3.93-.24-42.46,0-84.92,0-127.38,0-1.33,0-2.89-.33-3.93.24-1.22.68-2.54,2.1-2.72,3.36-.12.83,1.54,2.29,2.7,2.81,1.12.5,2.62.17,3.95.17,21.31,0,42.63,0,63.94,0Z"/>
      <path d="m154.65,215.12c-33.38-.03-60.42-27.06-60.38-60.36.04-33.05,27.37-60.42,60.42-60.52,33.4-.1,60.6,27.24,60.49,60.81-.1,33.42-26.99,60.09-60.53,60.06Zm.14-12.06c26.73,0,48.33-21.56,48.33-48.25,0-26.56-21.78-48.37-48.31-48.39-26.37-.02-48.48,22.05-48.46,48.39.01,26.49,21.86,48.25,48.45,48.25Z"/>
      <path d="m146.35,5.88c10.89,10.85,21.31,21.23,32.09,31.97-8.6,0-17.02.32-25.41-.14-4.06-.22-6.52-3.46-6.62-7.58-.21-7.96-.06-15.93-.06-24.26Z"/>
      <path d="m193.94,211.82c5.9-5.91,11.86-11.87,18.08-18.1,3.05,3.06,7.52,7.55,11.76,11.81-6.08,6.06-12.05,12.01-18.61,18.55-3.98-4.34-8.29-9.04-11.24-12.26Z"/>
      <path d="m211.08,228.43c1.76-1.52,4.12-3.57,6.06-5.25,10.56,10.25,21.32,20.71,32.14,31.21-2.26,2.27-4.35,4.38-6.67,6.72-10.43-10.82-20.79-21.55-31.52-32.68Z"/>
      <path d="m247.71,266.36c6.28-6.27,12.33-12.31,18.4-18.38,9.55,7.13,11.68,15.38,5.59,22.33-6.4,7.3-14.07,6.06-23.99-3.95Z"/>
      <path d="m223.09,216.47c1.38-1.4,3.48-3.51,5.36-5.41,10.83,10.71,21.49,21.24,32.24,31.86-2.09,1.78-4.35,3.7-6.7,5.7-9.87-10.27-20.19-21.01-30.9-32.15Z"/>
      <path d="m28.04,37.66v-13.29h81.71v13.29H28.04Z"/>
      <path d="m113.12,154.75c.01-23.14,18.42-41.63,41.52-41.69,23.1-.07,42.17,18.91,42.06,41.86-.11,22.68-19.11,41.75-41.72,41.87-22.96.12-41.87-18.86-41.86-42.03Zm31.12,12.57c-3.25-3.56-5.13-6.22-7.6-8.08-1.29-.98-3.63-.56-5.5-.78.31,1.7.09,3.82,1.03,5.03,2.34,3,5.29,5.5,7.84,8.34,2.77,3.08,5.12,2.75,7.91-.12,9.5-9.76,19.23-19.3,28.65-29.13,1.27-1.32,2.39-4.7,1.65-5.66-2.19-2.89-4.3-.49-6.04,1.32-9.09,9.44-18.16,18.9-27.94,29.09Z"/>
    </g>
  </g>
</svg>